<svg width="633" height="633" viewBox="0 0 633 633" fill="none" xmlns="http://www.w3.org/2000/svg">
<path opacity="0.7" d="M85.9993 211.536C85.9993 211.536 50.7033 302.688 100.305 394.473C149.907 486.258 252.073 534.746 333.844 576.207C415.615 617.669 500.526 597.476 540.873 529.568C581.221 461.659 525.884 413.184 525.808 316.348C525.732 219.512 540.303 193.875 487.828 112.066C435.352 30.2573 306.714 12.1409 209.434 72.8203C112.155 133.5 85.9993 211.536 85.9993 211.536Z" fill="white"/>
<path d="M80.6315 176.176C114.446 110.547 177.24 60.8945 255.415 53.9061C309.183 49.218 362.769 64.7212 405.728 97.3932C427.072 113.851 446.037 134.804 458.634 158.718C473.092 186.19 477.307 217.866 492.183 245.211C510.679 279.204 545.418 293.231 568.75 322.602C587.956 346.795 594.552 379.217 592.349 410.032C588.323 466.28 555.369 519.68 506.894 548.507C465.913 572.878 416.514 579.6 368.9 577.385C295.472 573.979 222.373 549.76 164.542 504.4C106.711 459.039 65.1483 391.979 55.2989 319.146C48.6017 269.658 58.3373 219.436 80.6315 176.176Z" fill="#263238"/>
<path opacity="0.7" d="M80.6315 176.176C114.446 110.547 177.24 60.8945 255.415 53.9061C309.183 49.218 362.769 64.7212 405.728 97.3932C427.072 113.851 446.037 134.804 458.634 158.718C473.092 186.19 477.307 217.866 492.183 245.211C510.679 279.204 545.418 293.231 568.75 322.602C587.956 346.795 594.552 379.217 592.349 410.032C588.323 466.28 555.369 519.68 506.894 548.507C465.913 572.878 416.514 579.6 368.9 577.385C295.472 573.979 222.373 549.76 164.542 504.4C106.711 459.039 65.1483 391.979 55.2989 319.146C48.6017 269.658 58.3373 219.436 80.6315 176.176Z" fill="white"/>
<path d="M58.3247 200.167C59.8186 206.092 59.0843 195.192 62.0088 181.873C64.9332 168.555 69.9592 173.948 69.9592 173.948" stroke="#263238" stroke-linecap="round" stroke-linejoin="round"/>
<path d="M57.4131 186.558L66.5916 182.798" stroke="#263238" stroke-linecap="round" stroke-linejoin="round"/>
<path d="M74.175 178.278C74.175 178.278 68.6933 189.672 76.9602 194.458" stroke="#263238" stroke-linecap="round" stroke-linejoin="round"/>
<path d="M81.9609 175.088C81.9609 175.088 91.0255 180.152 85.3538 191.014" stroke="#263238" stroke-linecap="round" stroke-linejoin="round"/>
<path d="M75.7573 182.127L82.2519 186.862" stroke="#263238" stroke-linecap="round" stroke-linejoin="round"/>
<path d="M80.8467 180.038L75.77 188.128" stroke="#263238" stroke-linecap="round" stroke-linejoin="round"/>
<path d="M96.3807 312.841C104.009 312.841 110.193 306.657 110.193 299.029C110.193 291.401 104.009 285.217 96.3807 285.217C88.7525 285.217 82.5686 291.401 82.5686 299.029C82.5686 306.657 88.7525 312.841 96.3807 312.841Z" stroke="#263238" stroke-linecap="round" stroke-linejoin="round"/>
<path d="M115.143 319.754C123.603 319.754 130.461 312.895 130.461 304.435C130.461 295.975 123.603 289.116 115.143 289.116C106.683 289.116 99.8242 295.975 99.8242 304.435C99.8242 312.895 106.683 319.754 115.143 319.754Z" stroke="#263238" stroke-linecap="round" stroke-linejoin="round"/>
<path d="M108.965 293.345L102.609 295.611" stroke="#263238" stroke-linecap="round" stroke-linejoin="round"/>
<path d="M109.851 295.965L100.71 299.27" stroke="#263238" stroke-linecap="round" stroke-linejoin="round"/>
<path d="M110.193 299.13L99.9888 303.055" stroke="#263238" stroke-linecap="round" stroke-linejoin="round"/>
<path d="M109.471 303.448L100.166 307.701" stroke="#263238" stroke-linecap="round" stroke-linejoin="round"/>
<path d="M107.825 306.764L100.761 309.702" stroke="#263238" stroke-linecap="round" stroke-linejoin="round"/>
<path d="M103.052 278.001C102.66 276.735 98.1782 275.95 97.9883 279.267C97.7984 282.584 102.71 279.824 104.103 278.001C104.103 278.001 101.571 281.406 102.634 282.077" stroke="#263238" stroke-linecap="round" stroke-linejoin="round"/>
<path d="M127.866 282.128L123.891 290.395C123.891 290.395 125.878 286.255 128.005 286.597C130.626 287.066 128.879 291.357 125.714 289.775" stroke="#263238" stroke-linecap="round" stroke-linejoin="round"/>
<path d="M560.471 417.109L566.712 423.008" stroke="#263238" stroke-linecap="round" stroke-linejoin="round"/>
<path d="M566.712 415.564L561.483 423.376" stroke="#263238" stroke-linecap="round" stroke-linejoin="round"/>
<path d="M572.853 417.805L579.107 415.476" stroke="#263238" stroke-linecap="round" stroke-linejoin="round"/>
<path d="M582.107 408.969L585.905 412.323" stroke="#263238" stroke-linecap="round" stroke-linejoin="round"/>
<path d="M588.817 404.93L584.006 421.439" stroke="#263238" stroke-linecap="round" stroke-linejoin="round"/>
<path d="M297.472 324.374L314.272 312.816L336.516 314.373L337.908 342.58L321.577 354.252L301.422 352.784L297.472 324.374Z" stroke="#263238" stroke-linecap="round" stroke-linejoin="round"/>
<path d="M301.422 352.783L317.69 341.073L337.908 342.58" stroke="#263238" stroke-linecap="round" stroke-linejoin="round"/>
<path d="M317.69 341.073L314.272 312.816" stroke="#263238" stroke-linecap="round" stroke-linejoin="round"/>
<path d="M297.472 324.374L319.665 326.944L336.516 314.373" stroke="#263238" stroke-linecap="round" stroke-linejoin="round"/>
<path d="M319.665 326.944L321.577 354.252" stroke="#263238" stroke-linecap="round" stroke-linejoin="round"/>
<path d="M493.55 229.614L486.106 252.744L509.274 249.617L493.55 229.614Z" stroke="#263238" stroke-linecap="round" stroke-linejoin="round"/>
<path d="M493.55 229.614L497.69 251.048" stroke="#263238" stroke-linecap="round" stroke-linejoin="round"/>
<path d="M497.032 247.617L499.741 247.187L500.374 250.82" stroke="#263238" stroke-linecap="round" stroke-linejoin="round"/>
<path d="M201.788 441.277L213.359 446.961" stroke="#263238" stroke-linecap="round" stroke-linejoin="round"/>
<path d="M209.625 436.935L206.308 449.025" stroke="#263238" stroke-linecap="round" stroke-linejoin="round"/>
<path d="M211.232 431.035C211.422 430.838 211.655 430.689 211.913 430.599C212.171 430.509 212.446 430.481 212.717 430.516C212.988 430.552 213.247 430.651 213.472 430.805C213.698 430.959 213.885 431.163 214.017 431.402C215.182 433.225 212.903 437.049 212.903 437.049L217.549 435.276" stroke="#263238" stroke-linecap="round" stroke-linejoin="round"/>
<path d="M292.636 43.0439C303.688 49.26 291.028 64.452 291.028 73.314C291.028 82.176 303.688 80.91 310.018 83.442C312.55 83.442 317.614 83.442 317.475 89.8733" stroke="#263238" stroke-linecap="round" stroke-linejoin="round"/>
<path d="M280.318 51.1084C282.242 61.5782 294.244 57.8688 301.612 60.2616C314.272 64.3761 307.246 77.4412 303.473 85.341C301.207 90.0506 298.953 96.6591 303.005 101.128" stroke="#263238" stroke-linecap="round" stroke-linejoin="round"/>
<path d="M281.938 55.1723L295.117 44.2214" stroke="#263238" stroke-linecap="round" stroke-linejoin="round"/>
<path d="M287.104 58.4385L297.029 50.2095" stroke="#263238" stroke-linecap="round" stroke-linejoin="round"/>
<path d="M292.94 66.7687L301.321 60.1855" stroke="#263238" stroke-linecap="round" stroke-linejoin="round"/>
<path d="M291.206 76.6183L307.588 64.8445" stroke="#263238" stroke-linecap="round" stroke-linejoin="round"/>
<path d="M297.485 81.2139L308.904 72.833" stroke="#263238" stroke-linecap="round" stroke-linejoin="round"/>
<path d="M302.346 99.0264L316.614 87.4045" stroke="#263238" stroke-linecap="round" stroke-linejoin="round"/>
<path d="M302.701 89.886L312.006 83.3408" stroke="#263238" stroke-linecap="round" stroke-linejoin="round"/>
<path d="M106.559 449.481C121.2 449.481 133.069 437.612 133.069 422.97C133.069 408.329 121.2 396.46 106.559 396.46C91.918 396.46 80.0491 408.329 80.0491 422.97C80.0491 437.612 91.918 449.481 106.559 449.481Z" stroke="#263238" stroke-linecap="round" stroke-linejoin="round"/>
<path d="M113.231 397.321C122.473 386.472 130.335 380.332 133.36 382.332C137.969 385.358 129.702 406.019 114.902 428.465C100.103 450.911 84.3662 466.66 79.7579 463.622C76.7195 461.634 79.2769 451.987 85.6069 439.213" stroke="#263238" stroke-linecap="round" stroke-linejoin="round"/>
<path d="M80.6188 428.414C67.7309 424.705 59.5019 420.375 60.021 416.919C60.7679 411.45 83.0369 410.184 109.636 414.172C136.234 418.16 157.149 425.718 156.351 431.162C155.781 434.96 144.957 436.694 129.575 436.112" stroke="#263238" stroke-linecap="round" stroke-linejoin="round"/>
<path d="M83.9992 409.209C74.2763 391.662 69.4149 377.977 72.7065 375.837C77.0362 373.039 93.7727 391.194 110.091 416.349C126.41 441.505 136.12 464.242 131.803 467.053C128.942 468.901 120.65 461.583 110.636 449.126" stroke="#263238" stroke-linecap="round" stroke-linejoin="round"/>
<path d="M137.095 393.802C136.623 394.521 135.948 395.085 135.156 395.422C134.364 395.758 133.49 395.852 132.644 395.692C131.799 395.532 131.019 395.125 130.405 394.523C129.79 393.92 129.368 393.149 129.191 392.307C129.015 391.464 129.092 390.589 129.412 389.79C129.733 388.991 130.283 388.306 130.994 387.819C131.704 387.333 132.542 387.068 133.403 387.058C134.264 387.048 135.108 387.294 135.829 387.763C136.31 388.076 136.724 388.48 137.047 388.953C137.371 389.426 137.598 389.959 137.716 390.52C137.834 391.081 137.839 391.659 137.733 392.223C137.626 392.786 137.41 393.323 137.095 393.802Z" fill="#263238"/>
<path d="M122.675 460.507C122.203 461.227 121.528 461.791 120.736 462.127C119.944 462.464 119.07 462.558 118.224 462.398C117.379 462.238 116.599 461.831 115.985 461.228C115.37 460.626 114.948 459.855 114.771 459.012C114.595 458.17 114.672 457.294 114.993 456.495C115.313 455.697 115.864 455.011 116.574 454.525C117.284 454.039 118.122 453.774 118.983 453.764C119.844 453.754 120.688 453.999 121.409 454.469C121.89 454.781 122.304 455.186 122.628 455.659C122.951 456.132 123.179 456.664 123.296 457.225C123.414 457.786 123.419 458.365 123.313 458.928C123.206 459.491 122.99 460.028 122.675 460.507Z" fill="#263238"/>
<path d="M99.4062 415.248C98.9341 415.968 98.2594 416.531 97.4672 416.868C96.675 417.204 95.8009 417.298 94.9553 417.138C94.1096 416.978 93.3303 416.571 92.7157 415.969C92.1012 415.366 91.6789 414.595 91.5023 413.753C91.3257 412.91 91.4027 412.035 91.7235 411.236C92.0443 410.437 92.5945 409.752 93.3048 409.265C94.015 408.779 94.8533 408.514 95.7139 408.504C96.5746 408.494 97.4188 408.74 98.1402 409.209C99.1079 409.843 99.7846 410.835 100.022 411.967C100.259 413.099 100.038 414.279 99.4062 415.248Z" fill="#263238"/>
<path d="M377.053 225.753H391.966L399.423 212.84L391.966 199.927H377.053L369.596 212.84L377.053 225.753Z" stroke="#263238" stroke-linecap="round" stroke-linejoin="round"/>
<path d="M374.888 254.099L367.431 241.186H352.518" stroke="#263238" stroke-linecap="round" stroke-linejoin="round"/>
<path d="M354.518 212.84H369.431L376.888 199.927L369.431 187.001H354.518L347.061 199.927L354.518 212.84Z" stroke="#263238" stroke-linecap="round" stroke-linejoin="round"/>
<path d="M377.053 199.927H391.966L399.423 187.001L391.966 174.088H377.053L369.596 187.001L377.053 199.927Z" stroke="#263238" stroke-linecap="round" stroke-linejoin="round"/>
<path d="M376.888 201.927C377.993 201.927 378.888 201.031 378.888 199.927C378.888 198.822 377.993 197.926 376.888 197.926C375.783 197.926 374.888 198.822 374.888 199.927C374.888 201.031 375.783 201.927 376.888 201.927Z" fill="#263238"/>
<path d="M345.744 174.809C346.849 174.809 347.745 173.914 347.745 172.809C347.745 171.704 346.849 170.809 345.744 170.809C344.64 170.809 343.744 171.704 343.744 172.809C343.744 173.914 344.64 174.809 345.744 174.809Z" fill="#263238"/>
<path d="M372.888 254.099C372.888 253.703 373.005 253.317 373.225 252.988C373.445 252.659 373.757 252.402 374.122 252.251C374.488 252.1 374.89 252.06 375.278 252.137C375.666 252.214 376.023 252.405 376.302 252.685C376.582 252.964 376.773 253.321 376.85 253.709C376.927 254.097 376.887 254.499 376.736 254.864C376.585 255.23 376.328 255.542 375.999 255.762C375.67 255.982 375.284 256.099 374.888 256.099C374.625 256.099 374.365 256.047 374.122 255.947C373.88 255.846 373.659 255.699 373.474 255.513C373.288 255.328 373.14 255.107 373.04 254.864C372.939 254.622 372.888 254.362 372.888 254.099Z" fill="#263238"/>
<path d="M352.518 243.186C353.623 243.186 354.518 242.29 354.518 241.186C354.518 240.081 353.623 239.185 352.518 239.185C351.413 239.185 350.518 240.081 350.518 241.186C350.518 242.29 351.413 243.186 352.518 243.186Z" fill="#263238"/>
<path d="M413.856 187.368C413.856 186.969 413.974 186.58 414.196 186.248C414.417 185.917 414.733 185.659 415.101 185.507C415.47 185.355 415.875 185.316 416.266 185.395C416.657 185.473 417.015 185.666 417.296 185.949C417.577 186.232 417.768 186.592 417.844 186.983C417.92 187.374 417.879 187.779 417.724 188.147C417.57 188.515 417.31 188.828 416.978 189.048C416.645 189.267 416.254 189.383 415.856 189.381C415.592 189.381 415.331 189.329 415.087 189.227C414.844 189.126 414.623 188.978 414.437 188.79C414.251 188.603 414.104 188.381 414.004 188.137C413.904 187.893 413.854 187.632 413.856 187.368Z" fill="#263238"/>
<path d="M367.279 243.186C368.384 243.186 369.279 242.29 369.279 241.186C369.279 240.081 368.384 239.185 367.279 239.185C366.174 239.185 365.279 240.081 365.279 241.186C365.279 242.29 366.174 243.186 367.279 243.186Z" fill="#263238"/>
<path d="M397.423 187.368C397.423 186.97 397.541 186.581 397.762 186.25C397.983 185.919 398.298 185.661 398.665 185.508C399.033 185.356 399.438 185.316 399.828 185.394C400.219 185.471 400.578 185.663 400.859 185.945C401.141 186.226 401.332 186.585 401.41 186.975C401.488 187.366 401.448 187.77 401.295 188.138C401.143 188.506 400.885 188.82 400.554 189.042C400.223 189.263 399.834 189.381 399.436 189.381C398.902 189.381 398.39 189.169 398.012 188.791C397.635 188.414 397.423 187.902 397.423 187.368Z" fill="#263238"/>
<path d="M374.888 225.766C374.885 225.367 375.001 224.976 375.222 224.643C375.442 224.31 375.756 224.05 376.124 223.896C376.493 223.742 376.899 223.701 377.29 223.778C377.682 223.856 378.042 224.048 378.324 224.33C378.606 224.612 378.798 224.972 378.875 225.364C378.953 225.755 378.912 226.161 378.758 226.529C378.604 226.898 378.344 227.212 378.011 227.432C377.678 227.652 377.287 227.769 376.888 227.766C376.359 227.763 375.852 227.551 375.477 227.177C375.103 226.802 374.891 226.295 374.888 225.766Z" fill="#263238"/>
<path d="M399.436 187.343H415.856" stroke="#263238" stroke-linecap="round" stroke-linejoin="round"/>
<path d="M376.888 225.766L367.279 241.185" stroke="#263238" stroke-linecap="round" stroke-linejoin="round"/>
<path d="M354.518 187.001L345.745 172.809" stroke="#263238" stroke-linecap="round" stroke-linejoin="round"/>
<path d="M460.292 136.095C462.013 130.281 465.598 125.194 470.495 121.619C475.393 118.045 481.33 116.18 487.392 116.314C493.453 116.448 499.303 118.573 504.038 122.36C508.772 126.148 512.129 131.388 513.591 137.272" stroke="#263238" stroke-linecap="round" stroke-linejoin="round"/>
<path d="M483.612 171.34C476.876 170.57 470.66 167.347 466.147 162.288C461.634 157.229 459.14 150.686 459.14 143.906" stroke="#263238" stroke-linecap="round" stroke-linejoin="round"/>
<path d="M514.388 143.906C514.388 151.227 511.481 158.248 506.306 163.426C501.13 168.604 494.11 171.514 486.79 171.518" stroke="#263238" stroke-linecap="round" stroke-linejoin="round"/>
<path d="M515.958 126.397C524.592 125.296 530.378 125.891 531.277 128.474C533.062 133.614 514.591 144.691 490.018 153.224C465.445 161.757 444.087 164.491 442.289 159.339C441.34 156.591 446.176 152.148 454.633 147.299" stroke="#263238" stroke-linecap="round" stroke-linejoin="round"/>
<path d="M367.279 107.483L369.925 112.839L375.837 113.699L371.558 117.877L372.571 123.764L367.279 120.979L361.987 123.764L363 117.877L358.721 113.699L364.633 112.839L367.279 107.483Z" stroke="#263238" stroke-linecap="round" stroke-linejoin="round"/>
<path d="M180.367 93.2156C180.364 97.9769 178.472 102.542 175.106 105.91C171.741 109.278 167.176 111.173 162.415 111.18C161.833 111.18 161.263 111.155 160.706 111.104C157.241 110.776 153.946 109.447 151.222 107.281C148.498 105.115 146.461 102.204 145.36 98.9021C144.259 95.6003 144.141 92.0497 145.021 88.6821C145.9 85.3144 147.738 82.2746 150.313 79.9323C152.887 77.5899 156.087 76.0459 159.522 75.4878C162.958 74.9297 166.481 75.3817 169.665 76.7887C172.848 78.1957 175.554 80.4972 177.454 83.4135C179.354 86.3297 180.366 89.735 180.367 93.2156V93.2156Z" stroke="#263238" stroke-linecap="round" stroke-linejoin="round"/>
<path d="M177.493 96.4564C177.496 97.0078 177.335 97.5475 177.03 98.0072C176.725 98.4669 176.291 98.8258 175.783 99.0386C175.274 99.2513 174.714 99.3083 174.172 99.2023C173.631 99.0962 173.134 98.832 172.743 98.443C172.352 98.0539 172.086 97.5577 171.977 97.0171C171.869 96.4765 171.923 95.9158 172.134 95.4061C172.344 94.8965 172.701 94.4607 173.159 94.1541C173.618 93.8475 174.157 93.6838 174.708 93.6838C175.445 93.6838 176.151 93.9755 176.673 94.4951C177.195 95.0147 177.49 95.7199 177.493 96.4564V96.4564Z" stroke="#263238" stroke-linecap="round" stroke-linejoin="round"/>
<path d="M152.49 103.521C152.491 104.181 152.346 104.833 152.066 105.43C151.786 106.027 151.377 106.556 150.869 106.977C148.508 105.028 146.69 102.504 145.59 99.6468C146.286 99.219 147.089 98.9953 147.907 99.0012C148.505 98.9928 149.1 99.1035 149.656 99.3269C150.211 99.5502 150.717 99.8818 151.143 100.302C151.57 100.723 151.908 101.224 152.14 101.776C152.371 102.329 152.49 102.922 152.49 103.521Z" stroke="#263238" stroke-linecap="round" stroke-linejoin="round"/>
<path d="M174.708 106.344C171.388 109.488 166.988 111.237 162.415 111.231C161.833 111.231 161.263 111.205 160.706 111.155C160.604 110.667 160.553 110.171 160.554 109.673C160.555 107.99 161.124 106.357 162.169 105.038C163.215 103.719 164.675 102.791 166.313 102.406C167.951 102.021 169.672 102.2 171.196 102.915C172.719 103.629 173.957 104.838 174.708 106.344V106.344Z" stroke="#263238" stroke-linecap="round" stroke-linejoin="round"/>
<path d="M158.06 86.0881C160.34 86.0881 162.187 84.2403 162.187 81.9609C162.187 79.6815 160.34 77.8337 158.06 77.8337C155.781 77.8337 153.933 79.6815 153.933 81.9609C153.933 84.2403 155.781 86.0881 158.06 86.0881Z" stroke="#263238" stroke-linecap="round" stroke-linejoin="round"/>
<path d="M161.883 93.6839C161.883 94.062 161.771 94.4316 161.561 94.7459C161.351 95.0603 161.053 95.3053 160.703 95.45C160.354 95.5947 159.97 95.6326 159.599 95.5588C159.228 95.485 158.887 95.303 158.62 95.0356C158.353 94.7683 158.171 94.4277 158.097 94.0568C158.023 93.686 158.061 93.3016 158.206 92.9523C158.35 92.603 158.595 92.3045 158.91 92.0944C159.224 91.8843 159.594 91.7722 159.972 91.7722C160.223 91.7722 160.471 91.8217 160.703 91.9177C160.935 92.0138 161.146 92.1546 161.323 92.3321C161.501 92.5096 161.642 92.7204 161.738 92.9523C161.834 93.1843 161.883 93.4328 161.883 93.6839Z" stroke="#263238" stroke-linecap="round" stroke-linejoin="round"/>
<path d="M176.987 82.7329C176.484 82.8977 175.958 82.9789 175.43 82.9735C174.739 82.9735 174.054 82.8371 173.416 82.5723C172.778 82.3075 172.198 81.9194 171.71 81.4302C171.222 80.9409 170.835 80.3603 170.572 79.7214C170.309 79.0825 170.174 78.3979 170.176 77.7069C170.163 77.4877 170.163 77.2678 170.176 77.0486C172.887 78.3414 175.23 80.2963 176.987 82.7329V82.7329Z" stroke="#263238" stroke-linecap="round" stroke-linejoin="round"/>
<path d="M589.766 301.675L591.703 297.32L588.563 295.598C588.679 294.831 588.7 294.053 588.627 293.281L591.842 291.712L590.133 287.268L586.69 288.255C586.228 287.635 585.692 287.074 585.095 286.584L586.272 283.191L581.917 281.254L580.182 284.394C579.413 284.299 578.635 284.299 577.866 284.394L576.308 281.178L571.852 282.888L572.852 286.318C572.231 286.788 571.666 287.327 571.169 287.926L567.788 286.749L565.902 291.041L569.042 292.775C568.926 293.542 568.904 294.32 568.978 295.092L565.75 296.649L567.459 301.105L570.903 300.105C571.367 300.726 571.903 301.291 572.498 301.789L571.333 305.169L575.688 307.106L577.41 303.966C578.177 304.082 578.955 304.103 579.727 304.03L581.297 307.258L585.74 305.549L584.753 302.105C585.37 301.64 585.931 301.105 586.424 300.51L589.766 301.675ZM576.524 299.244C575.524 298.8 574.679 298.069 574.094 297.144C573.51 296.219 573.213 295.141 573.241 294.048C573.269 292.954 573.621 291.893 574.252 290.999C574.882 290.105 575.764 289.419 576.785 289.026C577.806 288.633 578.921 288.552 579.988 288.792C581.056 289.033 582.027 289.584 582.781 290.377C583.535 291.17 584.037 292.169 584.223 293.247C584.41 294.325 584.272 295.434 583.829 296.434C583.23 297.773 582.126 298.821 580.757 299.348C579.387 299.875 577.865 299.837 576.524 299.244V299.244Z" stroke="#263238" stroke-linecap="round" stroke-linejoin="round"/>
<path d="M566.624 324.02L569.257 318.108L565.003 315.753C565.155 314.713 565.18 313.659 565.079 312.613L569.46 310.487L567.168 304.448L562.497 305.802C561.872 304.956 561.145 304.19 560.332 303.524L561.927 298.915L555.964 296.244L553.622 300.498C552.582 300.349 551.529 300.319 550.482 300.409L548.355 296.042L542.304 298.371L543.658 303.03C542.818 303.666 542.053 304.396 541.38 305.207L536.784 303.663L534.151 309.575L538.405 311.93C538.253 312.969 538.227 314.024 538.329 315.069L533.948 317.196L536.278 323.235L540.949 321.893C541.577 322.737 542.304 323.502 543.114 324.172L541.519 328.768L547.444 331.401L549.786 327.134C550.825 327.29 551.879 327.32 552.926 327.223L555.052 331.591L561.104 329.274L559.749 324.602C560.59 323.971 561.355 323.245 562.028 322.438L566.624 324.02ZM548.646 320.716C547.288 320.11 546.139 319.115 545.345 317.856C544.552 316.598 544.15 315.132 544.19 313.645C544.23 312.158 544.71 310.716 545.57 309.501C546.43 308.287 547.63 307.355 549.02 306.824C550.409 306.292 551.925 306.184 553.376 306.514C554.827 306.845 556.147 307.598 557.17 308.678C558.192 309.759 558.871 311.119 559.121 312.585C559.371 314.052 559.179 315.56 558.572 316.918C558.17 317.82 557.595 318.633 556.879 319.312C556.162 319.991 555.319 320.522 554.397 320.875C553.475 321.228 552.493 321.396 551.506 321.368C550.519 321.341 549.547 321.119 548.646 320.716Z" stroke="#263238" stroke-linecap="round" stroke-linejoin="round"/>
<path d="M304.182 267.898C302.447 271.185 300.488 274.349 298.32 277.368C287.072 293.007 270.545 304.046 251.791 308.446C233.036 312.847 213.323 310.311 196.293 301.308C194.534 300.384 192.812 299.396 191.166 298.358C189.52 297.32 187.912 296.257 186.368 295.117C184.494 293.763 182.697 292.319 180.975 290.813C180.865 290.73 180.763 290.637 180.671 290.534C169.452 280.606 161.252 267.722 157.008 253.354C152.764 238.987 152.647 223.715 156.67 209.284C160.693 194.853 168.695 181.845 179.76 171.746C190.825 161.646 204.508 154.863 219.246 152.171C233.983 149.479 249.18 150.987 263.102 156.522C277.023 162.057 289.106 171.397 297.972 183.473C306.837 195.55 312.126 209.877 313.236 224.817C314.345 239.757 311.23 254.708 304.245 267.962L304.182 267.898Z" fill="#263238"/>
<g opacity="0.6">
<path opacity="0.6" d="M304.182 267.898C302.447 271.185 300.488 274.349 298.32 277.368L296.776 276.102L294.117 274.697L291.319 273.228L291.788 269.848L291.636 266.797C291.471 263.746 293.674 266.24 295.434 265.316C296.806 264.335 297.915 263.03 298.662 261.518C298.662 261.518 299.928 257.454 299.51 255.821C298.829 253.939 298.025 252.103 297.105 250.326L292.573 256.656L288.775 256.365L285.179 254.466L284.711 249.465L282.862 248.503L282.09 245.629L272.101 242.831L270.962 240.831C269.823 238.831 265.227 237.805 265.227 237.805L266.354 235.197L268.126 232.286C269.911 229.374 271.76 234.21 271.76 234.21L273.874 235.311L277.798 232.02L278.837 227.298L285.23 227.665C285.105 227.026 285.202 226.363 285.506 225.787C285.81 225.211 286.303 224.757 286.901 224.5C289.028 223.664 288.091 219.043 287.281 217.334C286.471 215.625 283.483 217.005 283.483 217.005C283.483 217.005 280.229 212.055 279.786 210.08C279.343 208.105 285.989 208.814 288.838 206.826C291.686 204.839 290.712 200.889 289.319 200.8C287.926 200.712 292.041 191.812 299.953 194.255C302.156 194.939 303.549 194.698 304.41 193.938C310.346 205.369 313.427 218.067 313.387 230.946C313.347 243.826 310.189 256.505 304.182 267.898Z" fill="white"/>
<path opacity="0.6" d="M248.82 233.653L246.11 237.059C246.11 237.059 244.958 234.311 243.312 235.793L240.78 238.046L238.945 243.186L235.653 245.313L233.64 244.262L231.741 243.249L229.678 242.161L227.703 245.959L226.095 248.997C226.878 250.489 227.853 251.872 228.994 253.111L232.488 259.277L236.742 261.429C238.516 261.495 240.282 261.707 242.021 262.062L244.946 263.594L243.907 269.924C243.907 269.924 241.705 273.507 240.236 272.519L238.755 271.544L236.349 279.875L236.248 284.458C236.248 284.458 234.818 285.053 233.374 285.534C231.931 286.015 232.843 285.762 229.817 286.698C226.791 287.635 227.032 287.597 224.576 288.294C222.482 289.026 220.467 289.968 218.562 291.104L218.777 295.51L212.992 296.358L209.751 294.636L210.548 291.851L210.928 287.496L210.485 284.242L209.092 281.369L212.992 277.836L212.131 275.621L209.915 271.215L205.231 273.747L202.826 275.013L197.382 272.57L196.787 269.266L194.964 263.328L193.267 259.631L190.254 255.555L189.495 252.048L191.191 248.832L192.09 247.136L189.318 243.401L188.558 240.743L183.886 236.501C183.886 236.501 185.241 236.413 184.937 234.527C184.633 232.64 187.608 229.463 187.608 229.463C189.292 230.349 194.344 233.868 194.344 233.868L198.762 234.476C198.762 234.476 199.648 234.476 200.509 232.805C201.515 231.268 202.696 229.853 204.028 228.589C204.028 228.589 201.99 221.512 203.446 220.563C204.902 219.613 206.383 214.979 206.383 214.979L207.548 212.764C207.548 212.764 204.801 211.561 204.282 210.105C203.763 208.649 196.99 210.586 196.99 210.586L192.318 213.827L188.634 216.676L187.039 219.702C187.039 219.702 183.785 215.79 183.772 217.98C183.524 220.225 183.032 222.437 182.304 224.576C182.304 224.576 182.975 224.93 182.089 226.627C181.203 228.323 180.24 228.235 178.291 228.475C175.749 228.501 173.209 228.327 170.695 227.956C170.695 227.956 169.429 232.64 170.302 233.45L171.163 234.235C171.163 234.235 169.809 237.641 168.467 236.932L165.2 235.21L160.63 237.059L155.566 242.654L154.439 242.426C151.336 221.609 156.575 200.409 169.019 183.434C181.463 166.46 200.105 155.084 220.892 151.781C221.183 153.047 221.499 154.237 221.499 154.237L220.233 160.491L218.613 163.58L217.22 166.226L215.258 169.948L220.284 174.581L219.208 180.063L216.486 181.772L215.701 185.887L220.373 195.015L221.639 198.597C220.857 200.313 220.472 202.182 220.512 204.067C220.512 204.067 221.082 207.485 223.576 208.839C226.07 210.194 229.348 211.789 229.348 211.789L229.083 216.853L227.956 218.119L229.83 223.576C235.539 225.816 234.995 227.69 235.539 225.816L236.096 223.955L239.983 222.55L244.933 228.462C245.509 228.455 246.078 228.592 246.586 228.862C247.095 229.132 247.528 229.526 247.845 230.007C249.288 231.83 251.541 230.247 248.82 233.653Z" fill="white"/>
<path opacity="0.6" d="M181.721 277.748C181.861 279.545 179.582 281.799 179.582 281.799L181.443 282.774L182.013 287.838L180.607 290.522C170.65 281.725 163.055 270.574 158.516 258.087L159.528 252.719L163.997 252.086C163.997 252.086 167.998 249.427 169.77 250.136C171.543 250.845 173.163 255.2 173.163 255.2C173.163 255.2 174.429 261.075 174.265 260.961H174.189H174.29L176.113 261.923L176.632 264.24L174.1 269.05H170.024C170.024 269.05 169.213 268.62 169.137 270.734C169.203 271.468 169.426 272.179 169.791 272.819C170.156 273.459 170.654 274.013 171.252 274.444L175.657 273.317L176.835 268.759L181.164 267.911C181.164 267.911 180.544 270.709 181.557 271.241L182.582 271.785L183.19 275.127C182.736 275.396 182.362 275.78 182.104 276.24C181.846 276.701 181.714 277.22 181.721 277.748Z" fill="white"/>
<path opacity="0.6" d="M202.661 284.913C202.269 283.824 202.104 282.875 199.407 281.457C196.711 280.039 196.875 280.546 195.812 281.723C195.354 282.329 194.729 282.787 194.013 283.041C193.298 283.295 192.524 283.334 191.786 283.154C190.014 282.761 190.938 284.761 190.938 284.761L191.368 290.167L186.368 295.105C187.912 296.244 189.512 297.324 191.166 298.345L192.229 295.079L200.534 297.51C198.774 296.991 199.813 294.585 199.813 294.585L198.04 293.649C198.04 293.649 203.054 285.977 202.661 284.913Z" fill="white"/>
<path opacity="0.6" d="M254.972 256.808L252.25 254.061L249.136 255.036L247.87 257.568L246.92 259.391L248.186 261.923L250.718 264.999L252.162 262.239C252.162 262.239 256.175 262.239 258.276 259.922C260.378 257.606 254.972 256.808 254.972 256.808Z" fill="white"/>
<path opacity="0.6" d="M246.971 244.414L252.035 247.073L252.238 245.882C252.502 244.929 252.968 244.044 253.605 243.287L249.731 239.185L246.971 244.414Z" fill="white"/>
<path opacity="0.6" d="M245.249 303.346L243.794 301.207L242.097 300.321H236.919L233.969 305.916C233.969 305.916 231.146 305.536 227.437 305.207C223.727 304.878 224.639 306.41 224.639 306.41L223.677 309.929C233.036 311.082 242.525 310.572 251.706 308.423C250.639 307.679 249.532 306.994 248.389 306.372L245.249 303.346Z" fill="white"/>
</g>
<path d="M304.182 267.898C302.447 271.185 300.489 274.349 298.32 277.368C287.072 293.007 270.545 304.046 251.791 308.446C233.036 312.847 213.323 310.311 196.293 301.308C194.534 300.384 192.812 299.396 191.166 298.358C189.52 297.32 187.912 296.257 186.368 295.117C184.494 293.763 182.697 292.319 180.975 290.813C180.865 290.73 180.763 290.637 180.671 290.534V290.534C169.452 280.606 161.252 267.722 157.008 253.354C152.764 238.987 152.647 223.715 156.67 209.284C160.693 194.853 168.695 181.845 179.76 171.746C190.825 161.646 204.508 154.863 219.246 152.171C233.983 149.479 249.18 150.987 263.102 156.522C277.023 162.057 289.106 171.397 297.972 183.473C306.837 195.55 312.126 209.877 313.236 224.817C314.345 239.757 311.23 254.708 304.245 267.962L304.182 267.898Z" stroke="#263238" stroke-linecap="round" stroke-linejoin="round"/>
<path d="M251.706 308.423C242.525 310.572 233.036 311.082 223.677 309.929L224.639 306.41C224.639 306.41 223.727 304.878 227.437 305.207C231.146 305.536 233.969 305.916 233.969 305.916L236.919 300.321H242.097L243.794 301.207L245.249 303.346L248.389 306.372C249.532 306.994 250.639 307.679 251.706 308.423Z" stroke="#263238" stroke-linecap="round" stroke-linejoin="round"/>
<path d="M304.46 193.951C303.6 194.711 302.207 194.951 300.004 194.268C292.092 191.824 287.99 200.712 289.37 200.813C290.75 200.914 291.724 204.915 288.889 206.839C286.053 208.763 279.394 208.105 279.837 210.093C280.28 212.08 283.533 217.018 283.533 217.018C283.533 217.018 286.445 215.65 287.268 217.347C288.091 219.043 289.028 223.677 286.901 224.512C286.303 224.769 285.81 225.224 285.506 225.8C285.202 226.376 285.105 227.038 285.23 227.677L278.837 227.31L277.798 232.032L273.874 235.324L271.76 234.223C271.76 234.223 269.911 229.387 268.126 232.298L266.354 235.21L265.227 237.818C265.227 237.818 269.823 238.844 270.962 240.844L272.101 242.844L282.09 245.642L282.862 248.516L284.711 249.478L285.179 254.479L288.901 256.428L292.699 256.719L297.232 250.389C298.152 252.167 298.955 254.002 299.637 255.884C300.08 257.517 298.789 261.581 298.789 261.581C298.042 263.093 296.933 264.398 295.56 265.379C293.75 266.303 291.535 263.809 291.762 266.86L291.914 269.911L291.446 273.291L294.244 274.76L296.902 276.165L298.447 277.431" stroke="#263238" stroke-linecap="round" stroke-linejoin="round"/>
<path d="M154.541 242.426L155.667 242.654L160.731 237.058L165.302 235.21L168.568 236.932C169.91 237.641 171.264 234.235 171.264 234.235L170.404 233.45C169.53 232.64 170.796 227.956 170.796 227.956C173.311 228.327 175.85 228.5 178.392 228.475C180.392 228.234 181.342 228.31 182.19 226.627C183.038 224.943 182.405 224.576 182.405 224.576C183.133 222.437 183.626 220.225 183.874 217.98C183.874 215.79 187.14 219.702 187.14 219.702L188.735 216.676L192.305 213.84L196.977 210.599C196.977 210.599 203.75 208.649 204.269 210.118C204.788 211.586 207.535 212.777 207.535 212.777L206.371 214.992C206.371 214.992 204.877 219.6 203.433 220.575C201.99 221.55 204.016 228.602 204.016 228.602C202.683 229.865 201.502 231.28 200.496 232.817C199.61 234.514 198.749 234.488 198.749 234.488L194.331 233.881C194.331 233.881 189.267 230.361 187.596 229.475C187.596 229.475 184.621 232.653 184.925 234.539C185.228 236.425 183.874 236.514 183.874 236.514L188.545 240.755L189.305 243.414L192.077 247.148L191.179 248.845L189.482 252.061L190.242 255.567L193.255 259.644L194.964 263.328L196.812 269.291L197.407 272.595L202.851 275.038L205.256 273.772L209.941 271.24L212.156 275.646L213.017 277.862L209.118 281.394L210.51 284.268L210.953 287.521L210.574 291.876L209.776 294.661L213.017 296.383L218.803 295.548L218.587 291.129C220.493 289.993 222.507 289.052 224.601 288.319C227.057 287.622 226.816 287.66 229.842 286.724C232.868 285.787 231.944 286.04 233.4 285.559C234.856 285.078 236.273 284.483 236.273 284.483L236.375 279.9L238.78 271.57L240.261 272.544C241.73 273.532 243.933 269.949 243.933 269.949L244.971 263.619L241.983 262.062C240.244 261.706 238.478 261.495 236.704 261.429L232.539 259.239L229.045 253.073C227.904 251.834 226.929 250.45 226.145 248.959L227.753 245.92L229.728 242.122L231.792 243.211L233.691 244.224L235.704 245.275L238.995 243.148L240.831 238.008L243.363 235.754C245.009 234.261 246.161 237.02 246.161 237.02L248.87 233.615C251.592 230.209 249.339 231.792 247.946 230.045C247.629 229.564 247.197 229.17 246.688 228.9C246.179 228.63 245.61 228.493 245.034 228.5L240.084 222.588L236.147 224.082L235.59 225.943C235.045 227.817 235.59 225.943 229.88 223.702L228.007 218.246L229.133 216.98L229.399 211.916C229.399 211.916 226.12 210.308 223.626 208.966C221.132 207.624 220.562 204.193 220.562 204.193C220.522 202.308 220.908 200.439 221.689 198.724L220.423 195.141L215.752 186.013L216.537 181.899L219.258 180.19L220.335 174.708L215.448 170.074L217.41 166.352L218.803 163.706L220.423 160.617L221.689 154.363C221.689 154.363 221.373 153.199 221.081 151.907" stroke="#263238" stroke-linecap="round" stroke-linejoin="round"/>
<path d="M181.038 290.8C180.939 290.687 180.829 290.585 180.709 290.496V290.496L182.114 287.812L181.544 282.748L179.683 281.774C179.683 281.774 181.962 279.52 181.823 277.722C181.798 277.186 181.918 276.653 182.169 276.179C182.421 275.704 182.795 275.306 183.253 275.026L182.646 271.684L181.62 271.139C180.607 270.608 181.228 267.81 181.228 267.81L176.898 268.658L175.721 273.216L171.315 274.342C170.717 273.912 170.219 273.357 169.854 272.717C169.49 272.077 169.267 271.367 169.201 270.633C169.277 268.519 170.087 268.949 170.087 268.949H174.163L176.695 264.138L176.176 261.822L174.353 260.859" stroke="#263238" stroke-linecap="round" stroke-linejoin="round"/>
<path d="M174.239 260.859C174.442 260.973 173.138 255.099 173.138 255.099C173.138 255.099 171.517 250.807 169.745 250.035C167.973 249.263 163.972 251.985 163.972 251.985L159.503 252.618L158.49 257.985" stroke="#263238" stroke-linecap="round" stroke-linejoin="round"/>
<path d="M192.229 295.079L191.166 298.345C189.478 297.316 187.878 296.235 186.368 295.105L191.368 290.167L190.938 284.761C190.938 284.761 190.014 282.761 191.786 283.154C192.524 283.334 193.298 283.295 194.013 283.041C194.729 282.787 195.354 282.329 195.812 281.723C196.85 280.546 196.724 280.039 199.407 281.457C202.091 282.875 202.269 283.824 202.661 284.913C203.054 286.002 198.04 293.687 198.04 293.687L199.813 294.623C199.813 294.623 198.774 297.029 200.534 297.548L192.229 295.079Z" stroke="#263238" stroke-linecap="round" stroke-linejoin="round"/>
<path d="M249.136 255.036L252.251 254.061L254.973 256.808C254.973 256.808 260.353 257.504 258.251 259.846C256.15 262.189 252.137 262.163 252.137 262.163L250.668 264.923L248.136 261.847L246.87 259.315L247.82 257.492L249.136 255.036Z" stroke="#263238" stroke-linecap="round" stroke-linejoin="round"/>
<path d="M253.605 243.287C252.968 244.044 252.502 244.929 252.238 245.882L252.035 247.073L246.971 244.414L249.731 239.185L253.605 243.287Z" stroke="#263238" stroke-linecap="round" stroke-linejoin="round"/>
<path d="M528.34 541.911C521.554 547.558 469.281 583.436 394.688 577.651C390.675 543.696 375.369 404.209 392.777 382.332C392.777 382.332 435.01 362.19 473.915 370.647C512.819 379.104 527.96 387.206 530.733 394.22C532.834 399.524 529.834 498.298 528.34 541.911Z" fill="#263238"/>
<path d="M472.623 385.548C450.215 404.955 421.35 400.854 421.983 385.953C422.084 383.623 424.578 380.737 424.578 380.737L423.705 379.395L419.907 373.66C417.134 369.368 413.665 363.975 411.247 360.05C409.222 356.708 459.723 325.64 459.723 343.504C459.723 368.672 472.079 373.407 472.079 373.407C476.738 375.28 481.08 378.243 472.623 385.548Z" fill="white" stroke="#263238" stroke-linecap="round" stroke-linejoin="round"/>
<path d="M486.79 423.983C486.79 423.983 482.27 439.479 484.41 443.923" stroke="white" stroke-linecap="round" stroke-linejoin="round"/>
<path d="M481.51 378.99C481.51 393.941 436.909 408.589 423.844 393.587" stroke="white" stroke-linecap="round" stroke-linejoin="round"/>
<path d="M444.822 361.734C444.822 361.734 441.834 373.001 427.908 381.8C427.244 380.66 426.171 379.814 424.908 379.433C424.489 379.364 424.061 379.364 423.642 379.433L419.844 373.698C427.047 368.507 444.822 361.734 444.822 361.734Z" fill="#263238"/>
<path d="M451.076 347.884C451.076 347.884 450.924 359 448.544 361.266C430.883 378.205 413.615 379.547 410.766 375.078C391.587 344.998 396.119 337.098 394.169 331.945C390.713 322.906 386.472 308.144 388.346 299.207C392.523 279.242 430.124 263.759 449.924 283.837C459.419 293.446 462.419 314.297 460.419 331.667" fill="white"/>
<path d="M451.076 347.884C451.076 347.884 450.924 359 448.544 361.266C430.883 378.205 413.615 379.547 410.766 375.078C391.587 344.998 396.119 337.098 394.169 331.945C390.713 322.906 386.472 308.144 388.346 299.207C392.523 279.242 430.124 263.759 449.924 283.837C459.419 293.446 462.419 314.297 460.419 331.667" stroke="#263238" stroke-linecap="round" stroke-linejoin="round"/>
<path d="M396.587 322.653C396.587 322.653 391.308 320.285 390.168 323.109" stroke="#263238" stroke-linecap="round" stroke-linejoin="round"/>
<path d="M409.386 322.83C409.386 322.83 420.362 318.234 425.3 323.818" stroke="#263238" stroke-linecap="round" stroke-linejoin="round"/>
<path d="M421.578 330.616C421.755 332.262 420.957 333.692 419.78 333.832C418.603 333.971 417.514 332.718 417.337 331.072C417.159 329.426 417.957 327.983 419.134 327.856C420.312 327.729 421.35 328.97 421.578 330.616Z" fill="#263238"/>
<path d="M400.056 331.11C400.246 332.756 399.435 334.199 398.258 334.325C397.081 334.452 395.992 333.224 395.815 331.578C395.637 329.932 396.435 328.489 397.612 328.362C398.79 328.236 399.853 329.464 400.056 331.11Z" fill="#263238"/>
<path d="M400.588 326.78C402.12 329.249 401.284 333.465 399.259 339.25C397.233 345.036 399.018 347.125 406.791 347.707" fill="white"/>
<path d="M400.588 326.78C402.12 329.249 401.284 333.465 399.259 339.25C397.233 345.036 399.018 347.125 406.791 347.707" stroke="#263238" stroke-linecap="round" stroke-linejoin="round"/>
<path d="M406.791 357.721C406.791 357.721 416.919 356.797 421.553 354.252" stroke="#263238" stroke-linecap="round" stroke-linejoin="round"/>
<path d="M470.952 300.321C470.952 292.801 463.533 277.368 450.519 275.634C443.036 267.81 432.377 264.936 419.438 267.911C389.535 274.773 380.433 304.296 379.129 309.183C379.002 309.638 378.939 309.892 378.939 309.892L386.94 307.866L383.497 314.588L387.687 317.361L386.725 318.424L391.586 323.109L390.067 314.55C391.004 309.031 397.359 301.308 397.359 301.308C395.04 304.314 393.594 307.902 393.181 311.677C395.713 305.106 410.905 299.017 410.905 299.017C405.981 303.017 403.309 310.841 403.309 310.841C407.994 305.068 418.97 301.333 425.996 299.346C428.364 305.055 432.124 311.018 437.491 314.323C442.555 317.437 442.378 323.868 442.378 323.868C447.827 327.655 451.841 333.168 453.772 339.516L459.9 347.897C459.9 347.897 470.952 334.338 470.952 300.321Z" fill="#263238"/>
<path d="M445.164 326.02C443.113 321.627 450.557 309.727 455.836 311.195C458.798 312.031 462.672 317.437 463.432 323.109C464.192 328.78 460.178 339.567 455.899 341.909C453.177 343.428 450.937 339.288 450.937 339.288" fill="white"/>
<path d="M445.164 326.02C443.113 321.627 450.557 309.727 455.836 311.195C458.798 312.031 462.672 317.437 463.432 323.109C464.192 328.78 460.178 339.567 455.899 341.909C453.177 343.428 450.937 339.288 450.937 339.288" stroke="#263238" stroke-linecap="round" stroke-linejoin="round"/>
<path d="M122.182 540.899L265.227 507.451L563.598 541.911L486.777 594.45L122.182 540.899Z" fill="white"/>
<path d="M122.182 540.899L265.227 507.451L563.598 541.911" fill="white"/>
<path d="M122.182 540.899L265.227 507.451L563.598 541.911" stroke="#263238" stroke-linecap="round" stroke-linejoin="round"/>
<path d="M245.971 547.608L303.878 522.01L377.091 525.795L344.529 553.635L245.971 547.608Z" fill="white" stroke="#263238" stroke-linecap="round" stroke-linejoin="round"/>
<path d="M395.6 381.066C377.027 388.662 373.027 405.74 341.465 473.231C341.465 473.231 327.451 476.105 319.943 493.132C312.436 510.16 325.007 523.605 339.478 523.149C339.478 523.149 345.289 528.213 357.202 527.694C369.115 527.175 421.768 446.607 421.768 446.607L395.6 381.066Z" fill="#263238"/>
<path d="M346.998 477.193C355.303 484.587 360.076 495.436 357.544 507.463" stroke="white" stroke-linecap="round" stroke-linejoin="round"/>
<path d="M355.012 480.751C355.012 480.751 365.216 482.979 366.798 496.044" stroke="white" stroke-linecap="round" stroke-linejoin="round"/>
<path d="M384.864 442.518C380.043 430.623 378.377 417.684 380.028 404.956" stroke="white" stroke-linecap="round" stroke-linejoin="round"/>
<path d="M383.421 425.3C382.648 430.617 388.143 458.925 388.105 488.689" stroke="white" stroke-linecap="round" stroke-linejoin="round"/>
<path d="M522.25 386.662C545.481 398.334 548.241 434.251 526.327 477.193C510.844 507.502 489.474 552.255 475.953 555.255C462.432 558.255 449.24 549.837 449.24 549.837C449.24 549.837 437.846 549.305 434.403 541.202C424.984 519.06 448.924 491.082 458.292 497.779C458.292 497.779 488.372 432.364 493.854 428.237" fill="#263238"/>
<path d="M432.25 527.745C429.174 512.464 453.228 494.436 458.292 497.779C458.292 497.779 476.155 498.779 478.826 511.135" stroke="white" stroke-linecap="round" stroke-linejoin="round"/>
<path d="M497.69 530.998C508.147 512.553 526.327 477.193 526.327 477.193" stroke="white" stroke-linecap="round" stroke-linejoin="round"/>
<path d="M458.292 497.779C458.292 497.779 470.813 490.284 480.168 497.373" stroke="white" stroke-linecap="round" stroke-linejoin="round"/>
<path d="M462.571 488.676C462.571 488.676 469.484 473.484 476.497 459.558C483.511 445.632 499.564 425.009 506.236 424.009" stroke="white" stroke-linecap="round" stroke-linejoin="round"/>
<path d="M330.629 515.984C329.125 515.91 327.656 515.508 326.324 514.806C304.802 503.577 288.066 485.017 277.988 471.699C274.07 466.609 270.464 461.286 267.189 455.76L272.355 433.63C272.355 433.63 277.216 446.29 296.751 458.735C316.285 471.18 339.491 475.282 346.998 487.853C353.645 498.804 341.934 516.528 330.629 515.984Z" fill="white"/>
<path opacity="0.4" d="M330.629 515.984C330.389 514.383 329.964 512.815 329.363 511.312C324.843 499.994 297.498 477.497 297.498 477.497C290.99 477.295 283.837 474.585 278.014 471.699C274.087 466.609 270.472 461.287 267.189 455.76L272.355 433.63C272.355 433.63 277.216 446.29 296.751 458.735C316.285 471.18 339.491 475.282 346.998 487.853C353.645 498.804 341.934 516.528 330.629 515.984Z" fill="#263238"/>
<path d="M330.629 515.984C329.125 515.91 327.656 515.508 326.324 514.806C304.802 503.577 288.066 485.017 277.988 471.699C274.07 466.609 270.464 461.286 267.189 455.76L272.355 433.63C272.355 433.63 277.216 446.29 296.751 458.735C316.285 471.18 339.491 475.282 346.998 487.853C353.645 498.804 341.934 516.528 330.629 515.984Z" stroke="#263238" stroke-linecap="round" stroke-linejoin="round"/>
<path d="M281.887 454.418C281.887 454.418 279.216 466.217 272.177 463.571C268.379 462.141 261.062 450.797 259.682 445.075L281.887 454.418Z" fill="white" stroke="#263238" stroke-linecap="round" stroke-linejoin="round"/>
<path d="M250.858 381.762L256.606 378.8C256.606 378.8 272.848 378.939 282.926 387.13C292.079 394.574 296.725 406.234 296.725 406.234C296.725 406.234 332.287 386.598 368.609 397.866L383.421 480.422L315.323 484.878L272.823 444.505L250.858 381.762Z" fill="white" stroke="#263238" stroke-linecap="round" stroke-linejoin="round"/>
<path d="M388.105 483.726C388.105 483.726 380.117 483.485 369.432 483.84C353.277 484.346 330.958 486.169 320.754 492.107L320.273 491.942L310.93 488.676L310.74 488.397C309.018 485.865 295.13 465.926 275.292 457.811L247.237 379.42C247.237 379.42 276.355 380.686 292.269 406.994L300.257 409.88C300.257 409.88 347.796 395.802 374.407 400.866L388.105 483.726Z" fill="#263238"/>
<path opacity="0.3" d="M310.74 488.41C309.018 485.878 295.13 465.939 275.292 457.824L247.237 379.433C247.237 379.433 276.355 380.699 292.269 407.006L310.74 488.41Z" fill="black" fill-opacity="0.7"/>
<path opacity="0.3" d="M369.431 483.84C353.277 484.346 330.958 486.169 320.754 492.107L320.273 491.942L301.612 412.716C301.612 412.716 316.88 409.285 321.577 411.02C321.564 411.045 352.606 433.947 369.431 483.84Z" fill="black" fill-opacity="0.7"/>
<path d="M388.105 483.726C388.105 483.726 380.117 483.485 369.432 483.84C353.277 484.346 330.958 486.169 320.754 492.107L320.273 491.942L310.93 488.676L310.74 488.397C309.018 485.865 295.13 465.926 275.292 457.811L247.237 379.42C247.237 379.42 276.355 380.686 292.269 406.994L300.257 409.88C300.257 409.88 347.796 395.802 374.407 400.866L388.105 483.726Z" stroke="#263238" stroke-linecap="round" stroke-linejoin="round"/>
<path d="M300.283 409.893L318.602 485.891" stroke="#263238" stroke-linecap="round" stroke-linejoin="round"/>
<path d="M310.929 488.689L293.129 412.741" stroke="#263238" stroke-linecap="round" stroke-linejoin="round"/>
<path d="M265.708 455.823C261.644 454.697 253.453 430.276 257.201 419.755C257.201 419.755 261.657 412.02 263.531 411.488C266.366 410.665 277.811 410.906 277.254 412.83C275.988 417.286 267.202 417.21 267.202 417.21L264.353 422.426L264.467 425.3C264.467 425.3 268.607 422.287 270.126 422.376C270.911 422.376 274.963 424.401 278.178 426.098C280.925 427.554 282.609 428.351 281.976 429.668C279.938 434.048 271.266 430.934 271.266 430.934L268 435.859C268 435.859 271.152 436.403 272.532 436.555C273.912 436.707 285.369 444.341 285.027 445.29C283.673 449.012 272.81 444.986 272.81 444.986L270.886 446.594C270.886 446.594 278.887 448.658 279.748 448.962C281.014 449.43 285.888 453.177 285.812 453.608C285.23 456.899 278.507 454.481 278.507 454.481L272.62 454.241C271.724 455.032 270.645 455.589 269.481 455.861" fill="white"/>
<path d="M265.708 455.823C261.644 454.697 253.453 430.276 257.201 419.755C257.201 419.755 261.657 412.02 263.531 411.488C266.366 410.665 277.811 410.906 277.254 412.83C275.988 417.286 267.202 417.21 267.202 417.21L264.353 422.426L264.467 425.3C264.467 425.3 268.607 422.287 270.126 422.376C270.911 422.376 274.963 424.401 278.178 426.098C280.925 427.554 282.609 428.351 281.976 429.668C279.938 434.048 271.266 430.934 271.266 430.934L268 435.859C268 435.859 271.152 436.403 272.532 436.555C273.912 436.707 285.369 444.341 285.027 445.29C283.673 449.012 272.81 444.986 272.81 444.986L270.886 446.594C270.886 446.594 278.887 448.658 279.748 448.962C281.014 449.43 285.888 453.177 285.812 453.608C285.23 456.899 278.507 454.481 278.507 454.481L272.62 454.241C271.724 455.032 270.645 455.589 269.481 455.861" stroke="#263238" stroke-linecap="round" stroke-linejoin="round"/>
<path d="M264.417 425.3C264.417 425.3 260.619 428.49 259.644 429.415C258.669 430.339 258.91 433.276 258.91 433.276" stroke="#263238" stroke-linecap="round" stroke-linejoin="round"/>
<path d="M261.669 439.758C261.669 442.973 263.822 444.923 264.809 445.961C265.797 446.999 263.227 449.823 266.075 451.848" stroke="#263238" stroke-linecap="round" stroke-linejoin="round"/>
<path d="M449.189 541.683C441.15 543.874 432.415 529.745 421.755 514.325C414.716 504.197 406.842 493.398 397.79 486.473C397.068 485.929 396.334 485.397 395.6 484.891L400.891 458.305C411.88 464.065 418.691 473.294 430.098 482.776C448.455 498.057 464.723 507.438 469.23 514.199C473.737 520.959 462.963 537.923 449.189 541.683Z" fill="white"/>
<path opacity="0.4" d="M421.755 514.312C414.716 504.184 406.842 493.385 397.79 486.46C398.983 486.521 400.176 486.34 401.297 485.929C401.297 485.929 415.603 497.538 421.755 514.312Z" fill="#263238"/>
<path d="M449.189 541.683C441.15 543.874 432.415 529.745 421.755 514.325C414.716 504.197 406.842 493.398 397.79 486.473C397.068 485.929 396.334 485.397 395.6 484.891L400.891 458.305C411.88 464.065 418.691 473.294 430.098 482.776C448.455 498.057 464.723 507.438 469.23 514.199C473.737 520.959 462.963 537.923 449.189 541.683Z" stroke="#263238" stroke-linecap="round" stroke-linejoin="round"/>
<path d="M403.854 483.84C403.304 484.823 402.398 485.557 401.322 485.891C401.036 486.003 400.745 486.1 400.449 486.182H400.208C391.713 488.398 372.597 483.789 372.597 483.789C372.597 483.789 360.076 477.839 359.316 476.434C358.787 475.32 358.318 474.179 357.911 473.016L357.569 472.016C357.569 472.016 353.062 469.484 352.505 467.509C351.948 465.534 350.999 464.977 353.771 464.622C356.544 464.268 371.495 464.622 371.495 464.622L355.227 457.988C355.227 457.988 344.453 452.557 343.453 450.645C342.453 448.734 341.2 447.468 346.707 448.227C352.214 448.987 364.241 452.481 364.241 452.481L373.723 454.494L364.304 450.481C364.304 450.481 345.77 448.24 349.277 442.48H359.797C365.757 442.743 371.685 443.497 377.521 444.733C380.585 445.67 400.841 458.254 400.841 458.254" fill="white"/>
<path opacity="0.4" d="M400.182 486.233C391.687 488.448 372.571 483.84 372.571 483.84C372.571 483.84 360.05 477.89 359.29 476.485C358.761 475.371 358.292 474.23 357.885 473.066L373.254 474.75C372.717 475.718 372.435 476.808 372.435 477.915C372.435 479.023 372.717 480.112 373.254 481.08C374.964 484.157 394.435 487.271 400.182 486.233Z" fill="#263238"/>
<path d="M403.854 483.84C403.304 484.823 402.398 485.557 401.322 485.891C401.036 486.003 400.745 486.1 400.449 486.182H400.208C391.713 488.398 372.597 483.789 372.597 483.789C372.597 483.789 360.076 477.839 359.316 476.434C358.787 475.32 358.318 474.179 357.911 473.016L357.569 472.016C357.569 472.016 353.062 469.484 352.505 467.509C351.948 465.534 350.999 464.977 353.771 464.622C356.544 464.268 371.495 464.622 371.495 464.622L355.227 457.988C355.227 457.988 344.453 452.557 343.453 450.645C342.453 448.734 341.2 447.468 346.707 448.227C352.214 448.987 364.241 452.481 364.241 452.481L373.723 454.494L364.304 450.481C364.304 450.481 345.77 448.24 349.277 442.48H359.797C365.757 442.743 371.685 443.497 377.521 444.733C380.585 445.67 400.841 458.254 400.841 458.254" stroke="#263238" stroke-linecap="round" stroke-linejoin="round"/>
<path d="M357.544 472.066L376.04 474.788" stroke="#263238" stroke-linecap="round" stroke-linejoin="round"/>
<path d="M173.164 528.707L219.524 542.633L304.346 523.276C304.346 523.276 252.542 508.565 252.061 508.932C251.58 509.299 173.164 528.707 173.164 528.707Z" fill="#263238"/>
<path opacity="0.3" d="M173.164 528.707L219.524 542.633L304.346 523.276C304.346 523.276 252.542 508.565 252.061 508.932C251.58 509.299 173.164 528.707 173.164 528.707Z" fill="black" fill-opacity="0.7"/>
<path d="M173.164 528.707L219.524 542.633L304.346 523.276C304.346 523.276 252.542 508.565 252.061 508.932C251.58 509.299 173.164 528.707 173.164 528.707Z" stroke="#263238" stroke-linecap="round" stroke-linejoin="round"/>
<path d="M173.835 512.376C170.581 512.604 169.771 524.327 173.164 528.707L248.06 513.161L254.061 498.956L173.835 512.376Z" fill="#263238"/>
<path opacity="0.3" d="M173.835 512.376C170.581 512.604 169.771 524.327 173.164 528.707L248.06 513.161L254.061 498.956L173.835 512.376Z" fill="black" fill-opacity="0.7"/>
<path d="M173.835 512.376C170.581 512.604 169.771 524.327 173.164 528.707L248.06 513.161L254.061 498.956L173.835 512.376Z" stroke="#263238" stroke-linecap="round" stroke-linejoin="round"/>
<path d="M300.713 512.211C300.713 512.211 299.599 518.376 300.321 522.174L219.436 540.481L176.797 527.922C176.797 527.922 172.366 520.086 176.227 513.996L254.137 500.766L300.713 512.211Z" fill="white" stroke="#263238" stroke-linecap="round" stroke-linejoin="round"/>
<path d="M173.834 512.376L254.061 498.956L303.878 511.578L220.094 528.277L173.834 512.376Z" fill="#263238" stroke="#263238" stroke-linecap="round" stroke-linejoin="round"/>
<path d="M176.683 519.87L219.107 532.505L288.547 518.528" stroke="#263238" stroke-linecap="round" stroke-linejoin="round"/>
<path d="M300.093 519.82L225.424 535.746" stroke="#263238" stroke-linecap="round" stroke-linejoin="round"/>
<path d="M177.683 524.846C178.329 524.909 209.662 534.556 209.662 534.556" stroke="#263238" stroke-linecap="round" stroke-linejoin="round"/>
<path d="M293.991 516.895L299.928 515.933" stroke="#263238" stroke-linecap="round" stroke-linejoin="round"/>
<path d="M217.727 536.898L214.574 536.189" stroke="#263238" stroke-linecap="round" stroke-linejoin="round"/>
<path d="M176.227 513.996C177.887 515.909 178.848 518.329 178.951 520.859C179.055 523.39 178.295 525.88 176.797 527.922C175.41 525.886 174.621 523.502 174.52 521.041C174.42 518.579 175.011 516.139 176.227 513.996Z" fill="#263238"/>
<path opacity="0.3" d="M176.227 513.996C177.887 515.909 178.848 518.329 178.951 520.859C179.055 523.39 178.295 525.88 176.797 527.922C175.41 525.886 174.621 523.502 174.52 521.041C174.42 518.579 175.011 516.139 176.227 513.996Z" fill="white" fill-opacity="0.7"/>
<path d="M176.227 513.996C177.887 515.909 178.848 518.329 178.951 520.859C179.055 523.39 178.295 525.88 176.797 527.922C175.41 525.886 174.621 523.502 174.52 521.041C174.42 518.579 175.011 516.139 176.227 513.996Z" stroke="#263238" stroke-linecap="round" stroke-linejoin="round"/>
<path d="M349.505 532.505L430.465 535.822L422.578 563.687L322.982 559.889L349.505 532.505Z" fill="white"/>
<path opacity="0.4" d="M349.505 532.505L430.465 535.822L422.578 563.687L322.982 559.889L349.505 532.505Z" fill="#263238"/>
<path d="M349.505 532.505L430.465 535.822L422.578 563.687L322.982 559.889L349.505 532.505Z" stroke="#263238" stroke-linecap="round" stroke-linejoin="round"/>
</svg>
