<svg width="302" height="302" viewBox="0 0 302 302" fill="none" xmlns="http://www.w3.org/2000/svg">
<path fill-rule="evenodd" clip-rule="evenodd" d="M151 302C234.395 302 302 234.395 302 151C302 67.605 234.395 0 151 0C67.605 0 0 67.605 0 151C0 234.395 67.605 302 151 302ZM129.845 253.44C134.645 253.632 139.061 253.728 143.093 253.728C174.965 253.728 198.197 248.736 212.789 238.752C227.573 228.576 234.965 213.504 234.965 193.536C234.965 179.904 231.509 169.344 224.597 161.856C217.685 154.368 208.373 148.896 196.661 145.44C205.301 141.984 212.213 136.8 217.397 129.888C222.581 122.784 225.173 113.76 225.173 102.816C225.173 93.024 223.061 84.768 218.837 78.048C214.613 71.328 208.757 65.952 201.269 61.92C193.973 57.696 185.237 54.72 175.061 52.992C165.077 51.264 154.325 50.4 142.805 50.4C138.773 50.4 134.453 50.496 129.845 50.688C125.237 50.88 120.533 51.168 115.733 51.552C111.125 51.936 106.517 52.416 101.909 52.992C97.3008 53.568 93.0768 54.336 89.2367 55.296V248.832C93.0768 249.792 97.3008 250.56 101.909 251.136C106.517 251.712 111.125 252.192 115.733 252.576C120.533 252.96 125.237 253.248 129.845 253.44ZM116.885 229.248V158.976H152.885C160.949 158.976 168.245 159.552 174.773 160.704C181.301 161.856 186.869 163.776 191.477 166.464C196.277 169.152 199.925 172.8 202.421 177.408C204.917 181.824 206.165 187.296 206.165 193.824C206.165 201.12 204.437 207.168 200.981 211.968C197.717 216.768 193.301 220.512 187.733 223.2C182.165 225.888 175.637 227.808 168.149 228.96C160.853 229.92 153.077 230.4 144.821 230.4H133.013C129.749 230.208 126.869 230.016 124.373 229.824C121.493 229.632 118.997 229.44 116.885 229.248ZM146.261 136.512H116.885V74.88C120.149 74.496 123.797 74.208 127.829 74.016C131.861 73.824 137.429 73.728 144.533 73.728C151.637 73.728 158.357 74.304 164.693 75.456C171.029 76.608 176.501 78.432 181.109 80.928C185.909 83.232 189.653 86.4 192.341 90.432C195.029 94.272 196.373 99.072 196.373 104.832C196.373 110.976 195.029 116.064 192.341 120.096C189.845 124.128 186.293 127.392 181.685 129.888C177.269 132.384 171.989 134.112 165.845 135.072C159.701 136.032 153.173 136.512 146.261 136.512Z" fill="url(#paint0_linear_109_20)"/>
<defs>
<linearGradient id="paint0_linear_109_20" x1="2.99999" y1="-25" x2="342" y2="356" gradientUnits="userSpaceOnUse">
<stop stop-color="#5C01B8"/>
<stop offset="1" stop-color="#860DFF"/>
</linearGradient>
</defs>
</svg>
